<mxfile host="app.diagrams.net" modified="2022-08-28T12:32:27.946Z" agent="5.0 (Windows NT 10.0; Win64; x64) AppleWebKit/537.36 (KHTML, like Gecko) Chrome/104.0.5112.102 Safari/537.36 Edg/104.0.1293.63" etag="S86qvM6L6BJzPBbk8JI6" version="17.1.3" type="github">
  <diagram id="f9nh2O67XRx1jlFNAtA9" name="Page-1">
    <mxGraphModel dx="460" dy="744" grid="1" gridSize="10" guides="1" tooltips="1" connect="1" arrows="1" fold="1" page="1" pageScale="1" pageWidth="827" pageHeight="1169" math="0" shadow="0">
      <root>
        <mxCell id="0" />
        <mxCell id="1" parent="0" />
        <mxCell id="btXaNMShb-G69O60CwIR-1" value="知识图谱" style="rounded=0;whiteSpace=wrap;html=1;" parent="1" vertex="1">
          <mxGeometry x="273" y="230" width="90" height="30" as="geometry" />
        </mxCell>
        <mxCell id="btXaNMShb-G69O60CwIR-2" value="数学模型" style="rounded=0;whiteSpace=wrap;html=1;" parent="1" vertex="1">
          <mxGeometry x="423" y="230" width="90" height="30" as="geometry" />
        </mxCell>
        <mxCell id="btXaNMShb-G69O60CwIR-3" value="专家系统" style="rounded=0;whiteSpace=wrap;html=1;" parent="1" vertex="1">
          <mxGeometry x="347" y="350" width="90" height="30" as="geometry" />
        </mxCell>
        <mxCell id="btXaNMShb-G69O60CwIR-5" value="&lt;span style=&quot;font-size: 10.5pt&quot;&gt;GIS\地学专家知识&lt;/span&gt;" style="rounded=0;whiteSpace=wrap;html=1;fontStyle=1" parent="1" vertex="1">
          <mxGeometry x="549" y="155" width="138" height="30" as="geometry" />
        </mxCell>
        <mxCell id="btXaNMShb-G69O60CwIR-6" value="&lt;span style=&quot;font-size: 10.5pt&quot;&gt;制图综合专家知识库&lt;/span&gt;" style="rounded=0;whiteSpace=wrap;html=1;fontStyle=1" parent="1" vertex="1">
          <mxGeometry x="100" y="82.5" width="140" height="25" as="geometry" />
        </mxCell>
        <mxCell id="btXaNMShb-G69O60CwIR-8" value="&lt;b style=&quot;font-size: 17px;&quot;&gt;集成化&lt;/b&gt;" style="text;html=1;strokeColor=none;fillColor=none;align=center;verticalAlign=middle;whiteSpace=wrap;rounded=0;dashed=1;fontSize=17;" parent="1" vertex="1">
          <mxGeometry x="367" y="275" width="50" height="20" as="geometry" />
        </mxCell>
        <mxCell id="btXaNMShb-G69O60CwIR-56" style="edgeStyle=orthogonalEdgeStyle;rounded=0;orthogonalLoop=1;jettySize=auto;html=1;exitX=0.5;exitY=1;exitDx=0;exitDy=0;entryX=0.5;entryY=0;entryDx=0;entryDy=0;fontSize=12;" parent="1" edge="1">
          <mxGeometry relative="1" as="geometry">
            <mxPoint x="389" y="45" as="sourcePoint" />
            <mxPoint x="392" y="66" as="targetPoint" />
          </mxGeometry>
        </mxCell>
        <mxCell id="btXaNMShb-G69O60CwIR-10" value="&lt;span style=&quot;font-size: 10.5pt&quot;&gt;领域专家知识&lt;/span&gt;" style="rounded=0;whiteSpace=wrap;html=1;fontStyle=1" parent="1" vertex="1">
          <mxGeometry x="324" y="19" width="120" height="26" as="geometry" />
        </mxCell>
        <mxCell id="btXaNMShb-G69O60CwIR-11" value="" style="endArrow=none;html=1;strokeWidth=2;rounded=0;exitX=0.5;exitY=1;exitDx=0;exitDy=0;entryX=0.5;entryY=0;entryDx=0;entryDy=0;" parent="1" source="btXaNMShb-G69O60CwIR-1" target="btXaNMShb-G69O60CwIR-3" edge="1">
          <mxGeometry width="50" height="50" relative="1" as="geometry">
            <mxPoint x="303" y="400" as="sourcePoint" />
            <mxPoint x="353" y="350" as="targetPoint" />
          </mxGeometry>
        </mxCell>
        <mxCell id="btXaNMShb-G69O60CwIR-12" value="" style="endArrow=none;html=1;strokeWidth=2;rounded=0;exitX=1;exitY=0.5;exitDx=0;exitDy=0;entryX=0;entryY=0.5;entryDx=0;entryDy=0;" parent="1" source="btXaNMShb-G69O60CwIR-1" target="btXaNMShb-G69O60CwIR-2" edge="1">
          <mxGeometry width="50" height="50" relative="1" as="geometry">
            <mxPoint x="328" y="270" as="sourcePoint" />
            <mxPoint x="402" y="360" as="targetPoint" />
          </mxGeometry>
        </mxCell>
        <mxCell id="btXaNMShb-G69O60CwIR-13" value="" style="endArrow=none;html=1;strokeWidth=2;rounded=0;exitX=0.5;exitY=1;exitDx=0;exitDy=0;entryX=0.5;entryY=0;entryDx=0;entryDy=0;" parent="1" source="btXaNMShb-G69O60CwIR-2" target="btXaNMShb-G69O60CwIR-3" edge="1">
          <mxGeometry width="50" height="50" relative="1" as="geometry">
            <mxPoint x="328" y="270" as="sourcePoint" />
            <mxPoint x="402" y="360" as="targetPoint" />
          </mxGeometry>
        </mxCell>
        <mxCell id="btXaNMShb-G69O60CwIR-26" style="edgeStyle=orthogonalEdgeStyle;rounded=0;orthogonalLoop=1;jettySize=auto;html=1;exitX=1;exitY=0.5;exitDx=0;exitDy=0;entryX=0;entryY=0.5;entryDx=0;entryDy=0;fontSize=12;" parent="1" source="btXaNMShb-G69O60CwIR-14" target="btXaNMShb-G69O60CwIR-25" edge="1">
          <mxGeometry relative="1" as="geometry" />
        </mxCell>
        <mxCell id="btXaNMShb-G69O60CwIR-43" style="edgeStyle=orthogonalEdgeStyle;rounded=0;orthogonalLoop=1;jettySize=auto;html=1;exitX=0.5;exitY=0;exitDx=0;exitDy=0;entryX=0;entryY=0.5;entryDx=0;entryDy=0;fontSize=12;dashed=1;" parent="1" source="btXaNMShb-G69O60CwIR-14" target="btXaNMShb-G69O60CwIR-38" edge="1">
          <mxGeometry relative="1" as="geometry" />
        </mxCell>
        <mxCell id="btXaNMShb-G69O60CwIR-14" value="海岸线生态环境&lt;br&gt;自动制图综合系统" style="rounded=0;whiteSpace=wrap;html=1;fontStyle=1" parent="1" vertex="1">
          <mxGeometry x="549" y="355" width="110" height="47.5" as="geometry" />
        </mxCell>
        <mxCell id="btXaNMShb-G69O60CwIR-15" value="几何性知识" style="rounded=0;whiteSpace=wrap;html=1;" parent="1" vertex="1">
          <mxGeometry x="30" y="215" width="70" height="20" as="geometry" />
        </mxCell>
        <mxCell id="btXaNMShb-G69O60CwIR-16" value="结构性知识" style="rounded=0;whiteSpace=wrap;html=1;" parent="1" vertex="1">
          <mxGeometry x="30" y="235" width="70" height="20" as="geometry" />
        </mxCell>
        <mxCell id="btXaNMShb-G69O60CwIR-17" value="过程性知识" style="rounded=0;whiteSpace=wrap;html=1;" parent="1" vertex="1">
          <mxGeometry x="30" y="255" width="70" height="20" as="geometry" />
        </mxCell>
        <mxCell id="btXaNMShb-G69O60CwIR-18" value="地物地理特征的描述性知识" style="rounded=0;whiteSpace=wrap;html=1;" parent="1" vertex="1">
          <mxGeometry x="157" y="172" width="90" height="35" as="geometry" />
        </mxCell>
        <mxCell id="btXaNMShb-G69O60CwIR-20" value="制图综合操作项选择知识" style="rounded=0;whiteSpace=wrap;html=1;" parent="1" vertex="1">
          <mxGeometry x="157" y="207" width="90" height="35" as="geometry" />
        </mxCell>
        <mxCell id="btXaNMShb-G69O60CwIR-21" value="制图综合数学模型选择知识" style="rounded=0;whiteSpace=wrap;html=1;" parent="1" vertex="1">
          <mxGeometry x="157" y="242" width="90" height="35" as="geometry" />
        </mxCell>
        <mxCell id="btXaNMShb-G69O60CwIR-22" value="面向地理要素的制图综合知识" style="rounded=0;whiteSpace=wrap;html=1;" parent="1" vertex="1">
          <mxGeometry x="157" y="277" width="90" height="35" as="geometry" />
        </mxCell>
        <mxCell id="btXaNMShb-G69O60CwIR-23" value="" style="endArrow=classic;html=1;rounded=0;fontSize=17;exitX=1;exitY=0.75;exitDx=0;exitDy=0;" parent="1" source="btXaNMShb-G69O60CwIR-8" edge="1">
          <mxGeometry width="50" height="50" relative="1" as="geometry">
            <mxPoint x="303" y="280" as="sourcePoint" />
            <mxPoint x="543" y="380" as="targetPoint" />
          </mxGeometry>
        </mxCell>
        <mxCell id="btXaNMShb-G69O60CwIR-24" value="结合计算机软件技术" style="text;html=1;strokeColor=none;fillColor=none;align=center;verticalAlign=middle;whiteSpace=wrap;rounded=0;dashed=1;fontSize=12;rotation=35;" parent="1" vertex="1">
          <mxGeometry x="423" y="314" width="126" height="30" as="geometry" />
        </mxCell>
        <mxCell id="btXaNMShb-G69O60CwIR-25" value="实验验证" style="rounded=0;whiteSpace=wrap;html=1;" parent="1" vertex="1">
          <mxGeometry x="700" y="363.5" width="90" height="30" as="geometry" />
        </mxCell>
        <mxCell id="btXaNMShb-G69O60CwIR-30" value="" style="endArrow=none;html=1;rounded=0;fontSize=12;entryX=0.171;entryY=1.08;entryDx=0;entryDy=0;entryPerimeter=0;" parent="1" edge="1">
          <mxGeometry width="50" height="50" relative="1" as="geometry">
            <mxPoint x="124" y="240.5" as="sourcePoint" />
            <mxPoint x="123.94000000000005" y="108.5" as="targetPoint" />
          </mxGeometry>
        </mxCell>
        <mxCell id="btXaNMShb-G69O60CwIR-31" value="" style="endArrow=none;html=1;rounded=0;fontSize=12;" parent="1" edge="1">
          <mxGeometry width="50" height="50" relative="1" as="geometry">
            <mxPoint x="157" y="241.5" as="sourcePoint" />
            <mxPoint x="127" y="241.5" as="targetPoint" />
          </mxGeometry>
        </mxCell>
        <mxCell id="btXaNMShb-G69O60CwIR-32" value="" style="endArrow=none;html=1;rounded=0;fontSize=12;" parent="1" edge="1">
          <mxGeometry width="50" height="50" relative="1" as="geometry">
            <mxPoint x="127" y="241.5" as="sourcePoint" />
            <mxPoint x="100" y="241.5" as="targetPoint" />
          </mxGeometry>
        </mxCell>
        <mxCell id="btXaNMShb-G69O60CwIR-33" value="知识规则" style="text;html=1;strokeColor=none;fillColor=none;align=center;verticalAlign=middle;whiteSpace=wrap;rounded=0;dashed=1;fontSize=12;fontStyle=1" parent="1" vertex="1">
          <mxGeometry x="127" y="131.5" width="20" height="96.5" as="geometry" />
        </mxCell>
        <mxCell id="btXaNMShb-G69O60CwIR-34" value="总体" style="text;html=1;strokeColor=none;fillColor=none;align=center;verticalAlign=middle;whiteSpace=wrap;rounded=0;dashed=1;fontSize=12;fontStyle=1" parent="1" vertex="1">
          <mxGeometry x="34" y="193.5" width="60" height="30" as="geometry" />
        </mxCell>
        <mxCell id="btXaNMShb-G69O60CwIR-35" value="操作过程" style="text;html=1;strokeColor=none;fillColor=none;align=center;verticalAlign=middle;whiteSpace=wrap;rounded=0;dashed=1;fontSize=12;fontStyle=1" parent="1" vertex="1">
          <mxGeometry x="174" y="150" width="60" height="30" as="geometry" />
        </mxCell>
        <mxCell id="btXaNMShb-G69O60CwIR-38" value="制图综合推理机" style="rounded=0;whiteSpace=wrap;html=1;" parent="1" vertex="1">
          <mxGeometry x="640" y="272" width="90" height="20" as="geometry" />
        </mxCell>
        <mxCell id="btXaNMShb-G69O60CwIR-39" value="制图综合模型库" style="rounded=0;whiteSpace=wrap;html=1;" parent="1" vertex="1">
          <mxGeometry x="640" y="292" width="90" height="20" as="geometry" />
        </mxCell>
        <mxCell id="btXaNMShb-G69O60CwIR-42" value="领域知识图谱库" style="rounded=0;whiteSpace=wrap;html=1;" parent="1" vertex="1">
          <mxGeometry x="640" y="252" width="90" height="20" as="geometry" />
        </mxCell>
        <mxCell id="btXaNMShb-G69O60CwIR-44" value="三大功能模块" style="text;html=1;strokeColor=none;fillColor=none;align=center;verticalAlign=middle;whiteSpace=wrap;rounded=0;dashed=1;fontSize=12;fontStyle=1" parent="1" vertex="1">
          <mxGeometry x="644.5" y="228.5" width="81" height="30" as="geometry" />
        </mxCell>
        <mxCell id="btXaNMShb-G69O60CwIR-53" style="edgeStyle=orthogonalEdgeStyle;rounded=0;orthogonalLoop=1;jettySize=auto;html=1;exitX=0.5;exitY=1;exitDx=0;exitDy=0;entryX=0.5;entryY=0;entryDx=0;entryDy=0;fontSize=12;" parent="1" source="btXaNMShb-G69O60CwIR-46" target="btXaNMShb-G69O60CwIR-48" edge="1">
          <mxGeometry relative="1" as="geometry" />
        </mxCell>
        <mxCell id="btXaNMShb-G69O60CwIR-46" value="&lt;span style=&quot;text-align: left&quot;&gt;数据获取与预处理&lt;/span&gt;" style="rounded=0;whiteSpace=wrap;html=1;" parent="1" vertex="1">
          <mxGeometry x="324" y="66" width="140" height="25" as="geometry" />
        </mxCell>
        <mxCell id="btXaNMShb-G69O60CwIR-54" style="edgeStyle=orthogonalEdgeStyle;rounded=0;orthogonalLoop=1;jettySize=auto;html=1;exitX=0.5;exitY=1;exitDx=0;exitDy=0;entryX=0.5;entryY=0;entryDx=0;entryDy=0;fontSize=12;" parent="1" source="btXaNMShb-G69O60CwIR-48" target="btXaNMShb-G69O60CwIR-51" edge="1">
          <mxGeometry relative="1" as="geometry" />
        </mxCell>
        <mxCell id="btXaNMShb-G69O60CwIR-48" value="领域本体建模" style="rounded=0;whiteSpace=wrap;html=1;" parent="1" vertex="1">
          <mxGeometry x="346" y="106" width="92" height="25" as="geometry" />
        </mxCell>
        <mxCell id="btXaNMShb-G69O60CwIR-60" style="edgeStyle=orthogonalEdgeStyle;rounded=0;orthogonalLoop=1;jettySize=auto;html=1;exitX=0.5;exitY=1;exitDx=0;exitDy=0;entryX=0.5;entryY=0;entryDx=0;entryDy=0;fontSize=12;" parent="1" source="btXaNMShb-G69O60CwIR-51" target="btXaNMShb-G69O60CwIR-52" edge="1">
          <mxGeometry relative="1" as="geometry" />
        </mxCell>
        <mxCell id="btXaNMShb-G69O60CwIR-51" value="&lt;span style=&quot;text-align: left&quot;&gt;领域知识提取&lt;/span&gt;" style="rounded=0;whiteSpace=wrap;html=1;" parent="1" vertex="1">
          <mxGeometry x="345" y="146" width="92" height="25" as="geometry" />
        </mxCell>
        <mxCell id="btXaNMShb-G69O60CwIR-61" style="edgeStyle=orthogonalEdgeStyle;rounded=0;orthogonalLoop=1;jettySize=auto;html=1;exitX=0.5;exitY=1;exitDx=0;exitDy=0;fontSize=12;" parent="1" source="btXaNMShb-G69O60CwIR-52" edge="1">
          <mxGeometry relative="1" as="geometry">
            <mxPoint x="392" y="260" as="targetPoint" />
          </mxGeometry>
        </mxCell>
        <mxCell id="btXaNMShb-G69O60CwIR-52" value="&lt;span style=&quot;text-align: left&quot;&gt;领域知识存储与应用&lt;/span&gt;" style="rounded=0;whiteSpace=wrap;html=1;" parent="1" vertex="1">
          <mxGeometry x="331" y="185" width="122" height="25" as="geometry" />
        </mxCell>
        <mxCell id="btXaNMShb-G69O60CwIR-59" value="" style="endArrow=none;html=1;rounded=0;fontSize=12;entryX=1;entryY=0.5;entryDx=0;entryDy=0;exitX=0.5;exitY=0;exitDx=0;exitDy=0;" parent="1" source="btXaNMShb-G69O60CwIR-5" target="btXaNMShb-G69O60CwIR-10" edge="1">
          <mxGeometry width="50" height="50" relative="1" as="geometry">
            <mxPoint x="173" y="171" as="sourcePoint" />
            <mxPoint x="339" y="42" as="targetPoint" />
          </mxGeometry>
        </mxCell>
        <mxCell id="mNMhUy1Ns1LMCJtfUMYA-1" value="&lt;span style=&quot;font-size: 10.5pt&quot;&gt;生态环境专家知识&lt;/span&gt;" style="rounded=0;whiteSpace=wrap;html=1;fontStyle=1" parent="1" vertex="1">
          <mxGeometry x="34" y="520" width="120" height="26" as="geometry" />
        </mxCell>
        <mxCell id="mNMhUy1Ns1LMCJtfUMYA-2" value="&lt;span style=&quot;font-size: 10.5pt&quot;&gt;生态环境专家知识&lt;/span&gt;" style="rounded=0;whiteSpace=wrap;html=1;fontStyle=1" parent="1" vertex="1">
          <mxGeometry x="176" y="520" width="120" height="26" as="geometry" />
        </mxCell>
        <mxCell id="mNMhUy1Ns1LMCJtfUMYA-3" value="&lt;span style=&quot;font-size: 14px&quot;&gt;气象再分析数据&lt;/span&gt;" style="rounded=0;whiteSpace=wrap;html=1;fontStyle=1" parent="1" vertex="1">
          <mxGeometry x="325" y="520" width="120" height="26" as="geometry" />
        </mxCell>
        <mxCell id="mNMhUy1Ns1LMCJtfUMYA-4" value="&lt;span style=&quot;font-size: 10.5pt&quot;&gt;确定生态环境指标&lt;/span&gt;" style="rounded=0;whiteSpace=wrap;html=1;fontStyle=1" parent="1" vertex="1">
          <mxGeometry x="94" y="450" width="176" height="46" as="geometry" />
        </mxCell>
        <mxCell id="mNMhUy1Ns1LMCJtfUMYA-5" value="&lt;span style=&quot;font-size: 10.5pt&quot;&gt;气候气象数据&lt;/span&gt;" style="rounded=0;whiteSpace=wrap;html=1;fontStyle=1" parent="1" vertex="1">
          <mxGeometry x="27" y="610" width="120" height="26" as="geometry" />
        </mxCell>
        <mxCell id="mNMhUy1Ns1LMCJtfUMYA-6" value="&lt;span style=&quot;font-size: 14px&quot;&gt;海拔高度数据（DEM）&lt;/span&gt;" style="rounded=0;whiteSpace=wrap;html=1;fontStyle=1" parent="1" vertex="1">
          <mxGeometry x="176" y="600" width="120" height="36" as="geometry" />
        </mxCell>
        <mxCell id="xQRPEbYZBzEpqnlL_op7-1" value="&lt;span style=&quot;font-size: 14px&quot;&gt;&lt;span class=&quot;easyScholarTranslationResult&quot; style=&quot;color: rgb(85 , 170 , 255) ; font-weight: bold&quot;&gt;&amp;nbsp;Altitude data  &lt;/span&gt;&lt;/span&gt;" style="rounded=0;whiteSpace=wrap;html=1;fontStyle=1" parent="1" vertex="1">
          <mxGeometry x="325" y="600" width="120" height="26" as="geometry" />
        </mxCell>
        <mxCell id="xQRPEbYZBzEpqnlL_op7-2" value="&lt;span style=&quot;font-size: 14px&quot;&gt;&lt;span class=&quot;easyScholarTranslationResult&quot; style=&quot;color: rgb(85 , 170 , 255) ; font-weight: bold&quot;&gt;植被数据&lt;/span&gt;&lt;/span&gt;" style="rounded=0;whiteSpace=wrap;html=1;fontStyle=1" parent="1" vertex="1">
          <mxGeometry x="480" y="600" width="120" height="26" as="geometry" />
        </mxCell>
      </root>
    </mxGraphModel>
  </diagram>
</mxfile>
